<?xml version="1.0" standalone="no"?><?xml-stylesheet type="text/css" href="https://www.processon.com/themes/default/mind/icons/icons.css" ?><!DOCTYPE svg PUBLIC "-//W3C//DTD SVG 1.1//EN" "http://www.w3.org/Graphics/SVG/1.1/DTD/svg11.dtd">
<svg xmlns="http://www.w3.org/2000/svg" version="1.1" xlink="http://www.w3.org/1999/xlink" id="mind-svg-con" width="1291.46875px" height="292.0625px" style="position: absolute; left: 0px; top: 0px; width: 1291.47px; height: 292.062px; background: rgb(247, 247, 247); z-index: 999;"><defs></defs><g id="svgbackgroundid"><defs></defs><rect x="0" y="0" width="1291.46875" height="292.0625" fill="#F7F7F7"></rect></g><g transform="translate(-9354.5, -9872)" id="sdjakdjak5"><defs></defs><g class="svg-topic-con" transform="translate(0.5,0.5)"><path part="right" sub="true" id="line_812b3a9306dd" d="M10000 9970 L10000 10007 L9734 10007 L9734 10030" stroke="#0FBAB0" fill="none" stroke-width="3"></path><path part="right" sub="true" id="line_0291282e6d37" d="M10000 9970 L10000 10007 L10179 10007 L10179 10030" stroke="#02ACF4" fill="none" stroke-width="3"></path><path part="right" sub="true" id="line_78376c5ca10c" d="M10000 9970 L10000 10007 L10353 10007 L10353 10030" stroke="#80BA4C" fill="none" stroke-width="3"></path><path part="right" sub="true" id="line_64748331c2dc" d="M10000 9970 L10000 10007 L10548 10007 L10548 10030" stroke="#F88A35" fill="none" stroke-width="3"></path></g><g class="svg-connection-con" transform="translate(0.5,0.5)"></g><g class="svg-freesums-con" transform="translate(0.5,0.5)"></g><g class="svg-freebos-con" transform="translate(0.5,0.5)"></g></g><g transform="translate(559.5, 30)" id="sdjakdjak4"><g id="subline_root" transform="translate(0.5,0.5)"></g><g transform="translate(0.5,0.5)"></g><g class="svg-summary-con" transform="translate(0.5,0.5)"></g><g class="svg-boundary-con" transform="translate(0.5,0.5)"></g></g><g transform="translate(30, 158)" id="sdjakdjak3"><g id="subline_812b3a9306dd" transform="translate(0.5,0.5)"><path id="line_6eed0422765c" d="M349 32 L349 56 L31 56L31 70" p="812b3a9306dd" stroke="#0FBAB0" fill="none" stroke-linecap="round" stroke-width="3"></path><path id="line_61b4e47f874c" d="M349 32 L349 56 L102 56L102 70" p="812b3a9306dd" stroke="#0FBAB0" fill="none" stroke-linecap="round" stroke-width="3"></path><path id="line_49fec651d9c4" d="M349 32 L349 56 L167 56L167 70" p="812b3a9306dd" stroke="#0FBAB0" fill="none" stroke-linecap="round" stroke-width="3"></path><path id="line_e527eb4db3d1" d="M349 32 L349 56 L241 56L241 70" p="812b3a9306dd" stroke="#0FBAB0" fill="none" stroke-linecap="round" stroke-width="3"></path><path id="line_aa523903786a" d="M349 32 L349 56 L332 56L332 70" p="812b3a9306dd" stroke="#0FBAB0" fill="none" stroke-linecap="round" stroke-width="3"></path><path id="line_dfc4c80d8972" d="M349 32 L349 56 L430 56L430 70" p="812b3a9306dd" stroke="#0FBAB0" fill="none" stroke-linecap="round" stroke-width="3"></path><path id="line_89bab8127bb1" d="M349 32 L349 56 L512 56L512 70" p="812b3a9306dd" stroke="#0FBAB0" fill="none" stroke-linecap="round" stroke-width="3"></path><path id="line_e336bdd69f93" d="M349 32 L349 56 L584 56L584 70" p="812b3a9306dd" stroke="#0FBAB0" fill="none" stroke-linecap="round" stroke-width="3"></path><path id="line_822030041f46" d="M349 32 L349 56 L664 56L664 70" p="812b3a9306dd" stroke="#0FBAB0" fill="none" stroke-linecap="round" stroke-width="3"></path></g><g transform="translate(0.5,0.5)"></g><g class="svg-summary-con" transform="translate(0.5,0.5)"></g><g class="svg-boundary-con" transform="translate(0.5,0.5)"></g></g><g transform="translate(779, 158)" id="sdjakdjak2"><g id="subline_0291282e6d37" transform="translate(0.5,0.5)"><path id="line_c2fb1413a7ca" d="M46 32 L46 56 L46 56L46 70" p="0291282e6d37" stroke="#02ACF4" fill="none" stroke-linecap="round" stroke-width="3"></path></g><g transform="translate(0.5,0.5)"></g><g class="svg-summary-con" transform="translate(0.5,0.5)"></g><g class="svg-boundary-con" transform="translate(0.5,0.5)"></g></g><g transform="translate(921, 158)" id="sdjakdjak1"><g id="subline_78376c5ca10c" transform="translate(0.5,0.5)"><path id="line_9952263c6921" d="M77 32 L77 56 L35 56L35 70" p="78376c5ca10c" stroke="#80BA4C" fill="none" stroke-linecap="round" stroke-width="3"></path><path id="line_8fdcb34a2c4a" d="M77 32 L77 56 L120 56L120 70" p="78376c5ca10c" stroke="#80BA4C" fill="none" stroke-linecap="round" stroke-width="3"></path></g><g transform="translate(0.5,0.5)"></g><g class="svg-summary-con" transform="translate(0.5,0.5)"></g><g class="svg-boundary-con" transform="translate(0.5,0.5)"></g></g><g transform="translate(1126, 158)" id="sdjakdjak0"><g id="subline_64748331c2dc" transform="translate(0.5,0.5)"><path id="line_8060f36df543" d="M67 32 L67 56 L31 56L31 70" p="64748331c2dc" stroke="#F88A35" fill="none" stroke-linecap="round" stroke-width="3"></path><path id="line_696e7607888d" d="M67 32 L67 56 L106 56L106 70" p="64748331c2dc" stroke="#F88A35" fill="none" stroke-linecap="round" stroke-width="3"></path></g><g transform="translate(0.5,0.5)"></g><g class="svg-summary-con" transform="translate(0.5,0.5)"></g><g class="svg-boundary-con" transform="translate(0.5,0.5)"></g></g><g id="64748331c2dc"><rect x="1163.734375" y="158" rx="1px" ry="1px" width="60" height="30" style="fill: transparent; stroke:none;"></rect><g><text text-anchor="start" align="top" anchor="start" font-size="16px" font-weight="normal" fill="rgb(13, 11, 34)" style="font-size:16px;font-family:微软雅黑;color:#0D0B22;font-style:normal;text-align:left;font-weight:normal;font-style: normal;"><tspan x="1177.734375" y="179.6640625"><tspan>其他</tspan></tspan></text></g></g><g id="8060f36df543"><rect x="1126" y="230.0625" rx="1px" ry="1px" width="63" height="30" style="fill: transparent; stroke:none;"></rect><g><text text-anchor="start" align="top" anchor="start" font-size="13px" font-weight="400" fill="rgb(13, 11, 34)" style="font-size:13px;font-family:微软雅黑;color:#0D0B22;font-style:normal;text-align:left;font-weight:400;font-style: normal;"><tspan x="1135" y="250.6015625"><tspan>window</tspan></tspan></text></g></g><g id="696e7607888d"><rect x="1204.46875" y="230.0625" rx="1px" ry="1px" width="57" height="30" style="fill: transparent; stroke:none;"></rect><g><text text-anchor="start" align="top" anchor="start" font-size="13px" font-weight="400" fill="rgb(13, 11, 34)" style="font-size:13px;font-family:微软雅黑;color:#0D0B22;font-style:normal;text-align:left;font-weight:400;font-style: normal;"><tspan x="1213.46875" y="250.6015625"><tspan>关于我</tspan></tspan></text></g></g><g id="78376c5ca10c"><rect x="968.5" y="158" rx="1px" ry="1px" width="60" height="30" style="fill: transparent; stroke:none;"></rect><g><text text-anchor="start" align="top" anchor="start" font-size="16px" font-weight="normal" fill="rgb(13, 11, 34)" style="font-size:16px;font-family:微软雅黑;color:#0D0B22;font-style:normal;text-align:left;font-weight:normal;font-style: normal;"><tspan x="982.5" y="179.6640625"><tspan>部署</tspan></tspan></text></g></g><g id="9952263c6921"><rect x="921" y="230.0625" rx="1px" ry="1px" width="70" height="30" style="fill: transparent; stroke:none;"></rect><g><text text-anchor="start" align="top" anchor="start" font-size="13px" font-weight="400" fill="rgb(13, 11, 34)" style="font-size:13px;font-family:微软雅黑;color:#0D0B22;font-style:normal;text-align:left;font-weight:400;font-style: normal;"><tspan x="930" y="250.6015625"><tspan>软件安装</tspan></tspan></text></g></g><g id="8fdcb34a2c4a"><rect x="1006" y="230.0625" rx="1px" ry="1px" width="70" height="30" style="fill: transparent; stroke:none;"></rect><g><text text-anchor="start" align="top" anchor="start" font-size="13px" font-weight="400" fill="rgb(13, 11, 34)" style="font-size:13px;font-family:微软雅黑;color:#0D0B22;font-style:normal;text-align:left;font-weight:400;font-style: normal;"><tspan x="1015" y="250.6015625"><tspan>网站相关</tspan></tspan></text></g></g><g id="0291282e6d37"><rect x="779" y="158" rx="1px" ry="1px" width="92" height="30" style="fill: transparent; stroke:none;"></rect><g><text text-anchor="start" align="top" anchor="start" font-size="16px" font-weight="normal" fill="rgb(13, 11, 34)" style="font-size:16px;font-family:微软雅黑;color:#0D0B22;font-style:normal;text-align:left;font-weight:normal;font-style: normal;"><tspan x="793" y="179.6640625"><tspan>源码系列</tspan></tspan></text></g></g><g id="c2fb1413a7ca"><rect x="792.34375" y="230.0625" rx="1px" ry="1px" width="65" height="30" style="fill: transparent; stroke:none;"></rect><g><text text-anchor="start" align="top" anchor="start" font-size="13px" font-weight="400" fill="rgb(13, 11, 34)" style="font-size:13px;font-family:微软雅黑;color:#0D0B22;font-style:normal;text-align:left;font-weight:400;font-style: normal;"><tspan x="801.34375" y="250.6015625"><tspan>Mybatis</tspan></tspan></text></g></g><g id="812b3a9306dd"><rect x="333.7421875" y="158" rx="1px" ry="1px" width="92" height="30" style="fill: transparent; stroke:none;"></rect><g><text text-anchor="start" align="top" anchor="start" font-size="16px" font-weight="normal" fill="rgb(13, 11, 34)" style="font-size:16px;font-family:微软雅黑;color:#0D0B22;font-style:normal;text-align:left;font-weight:normal;font-style: normal;"><tspan x="347.7421875" y="179.6640625"><tspan>学习笔记</tspan></tspan></text></g></g><g id="6eed0422765c"><rect x="30" y="230.0625" rx="1px" ry="1px" width="62" height="30" style="fill: transparent; stroke:none;"></rect><g><text text-anchor="start" align="top" anchor="start" font-size="13px" font-weight="400" fill="rgb(13, 11, 34)" style="font-size:13px;font-family:微软雅黑;color:#0D0B22;font-style:normal;text-align:left;font-weight:400;font-style: normal;"><tspan x="39" y="250.6015625"><tspan>MySQL</tspan></tspan></text></g></g><g id="61b4e47f874c"><rect x="106.75" y="230.0625" rx="1px" ry="1px" width="52" height="30" style="fill: transparent; stroke:none;"></rect><g><text text-anchor="start" align="top" anchor="start" font-size="13px" font-weight="400" fill="rgb(13, 11, 34)" style="font-size:13px;font-family:微软雅黑;color:#0D0B22;font-style:normal;text-align:left;font-weight:400;font-style: normal;"><tspan x="115.75" y="250.6015625"><tspan>Redis</tspan></tspan></text></g></g><g id="49fec651d9c4"><rect x="173.265625" y="230.0625" rx="1px" ry="1px" width="48" height="30" style="fill: transparent; stroke:none;"></rect><g><text text-anchor="start" align="top" anchor="start" font-size="13px" font-weight="400" fill="rgb(13, 11, 34)" style="font-size:13px;font-family:微软雅黑;color:#0D0B22;font-style:normal;text-align:left;font-weight:400;font-style: normal;"><tspan x="182.265625" y="250.6015625"><tspan>JVM</tspan></tspan></text></g></g><g id="e527eb4db3d1"><rect x="236.265625" y="230.0625" rx="1px" ry="1px" width="70" height="30" style="fill: transparent; stroke:none;"></rect><g><text text-anchor="start" align="top" anchor="start" font-size="13px" font-weight="400" fill="rgb(13, 11, 34)" style="font-size:13px;font-family:微软雅黑;color:#0D0B22;font-style:normal;text-align:left;font-weight:400;font-style: normal;"><tspan x="245.265625" y="250.6015625"><tspan>并发编程</tspan></tspan></text></g></g><g id="aa523903786a"><rect x="321.265625" y="230.0625" rx="1px" ry="1px" width="82" height="30" style="fill: transparent; stroke:none;"></rect><g><text text-anchor="start" align="top" anchor="start" font-size="13px" font-weight="400" fill="rgb(13, 11, 34)" style="font-size:13px;font-family:微软雅黑;color:#0D0B22;font-style:normal;text-align:left;font-weight:400;font-style: normal;"><tspan x="330.265625" y="250.6015625"><tspan>Zookeeper</tspan></tspan></text></g></g><g id="dfc4c80d8972"><rect x="418.5" y="230.0625" rx="1px" ry="1px" width="83" height="30" style="fill: transparent; stroke:none;"></rect><g><text text-anchor="start" align="top" anchor="start" font-size="13px" font-weight="400" fill="rgb(13, 11, 34)" style="font-size:13px;font-family:微软雅黑;color:#0D0B22;font-style:normal;text-align:left;font-weight:400;font-style: normal;"><tspan x="427.5" y="250.6015625"><tspan>消息中间件</tspan></tspan></text></g></g><g id="89bab8127bb1"><rect x="516.5" y="230.0625" rx="1px" ry="1px" width="52" height="30" style="fill: transparent; stroke:none;"></rect><g><text text-anchor="start" align="top" anchor="start" font-size="13px" font-weight="400" fill="rgb(13, 11, 34)" style="font-size:13px;font-family:微软雅黑;color:#0D0B22;font-style:normal;text-align:left;font-weight:400;font-style: normal;"><tspan x="525.5" y="250.6015625"><tspan>Nginx</tspan></tspan></text></g></g><g id="e336bdd69f93"><rect x="583.7421875" y="230.0625" rx="1px" ry="1px" width="61" height="30" style="fill: transparent; stroke:none;"></rect><g><text text-anchor="start" align="top" anchor="start" font-size="13px" font-weight="400" fill="rgb(13, 11, 34)" style="font-size:13px;font-family:微软雅黑;color:#0D0B22;font-style:normal;text-align:left;font-weight:400;font-style: normal;"><tspan x="592.7421875" y="250.6015625"><tspan>Docker</tspan></tspan></text></g></g><g id="822030041f46"><rect x="659.4921875" y="230.0625" rx="1px" ry="1px" width="70" height="30" style="fill: transparent; stroke:none;"></rect><g><text text-anchor="start" align="top" anchor="start" font-size="13px" font-weight="400" fill="rgb(13, 11, 34)" style="font-size:13px;font-family:微软雅黑;color:#0D0B22;font-style:normal;text-align:left;font-weight:400;font-style: normal;"><tspan x="668.4921875" y="250.6015625"><tspan>设计模式</tspan></tspan></text></g></g><g id="root"><rect x="559.5" y="30" rx="7px" ry="7px" width="172" height="68" style="fill: #ffffff; stroke:none;"></rect><g><text text-anchor="start" align="top" anchor="start" font-size="24px" font-weight="normal" fill="rgb(42, 46, 54)" style="font-size:24px;font-family:微软雅黑;color:#2A2E36;font-style:normal;text-align:left;font-weight:normal;font-style: normal;"><tspan x="597.5" y="72.5"><tspan>本站导航</tspan></tspan></text></g></g></svg>
